<svg width="24" height="24" viewBox="0 0 24 24" fill="none" xmlns="http://www.w3.org/2000/svg">
<g clip-path="url(#clip0_774_2)">
<path d="M17.2422 17.1C15.1981 19.1441 12.7643 20.3553 10.516 20.6962C8.26709 21.0373 6.27795 20.5059 4.95053 19.1785C3.62311 17.8511 3.09175 15.8619 3.43279 13.6131C3.77376 11.3647 4.98493 8.93093 7.02903 6.88683C9.07313 4.84273 11.5069 3.63156 13.7553 3.29059C16.0041 2.94955 17.9933 3.48092 19.3207 4.80833C20.6481 6.13575 21.1795 8.12489 20.8384 10.3738C20.4975 12.6221 19.2863 15.0559 17.2422 17.1Z" stroke="black" stroke-width="2"/>
<path d="M7 20C7 18 7.84586 15.673 8.5 14.8607C9.3053 13.8607 10.5 13 12 12.5C13.5 12 15.0738 10.9262 16 10C17 9 18.5 6 18.5 4" stroke="black" stroke-width="2"/>
</g>
<defs>
<clipPath id="clip0_774_2">
<rect width="24" height="24" fill="white"/>
</clipPath>
</defs>
</svg>
