<svg width="24" height="24" viewBox="0 0 24 24" fill="none" xmlns="http://www.w3.org/2000/svg">
<path fill-rule="evenodd" clip-rule="evenodd" d="M15.0826 4.77854C14.0694 4.2204 13.7001 3.71431 13.5014 3.39221C13.4754 3.35003 13.4518 3.31028 13.4291 3.27176L13.425 3.26474C13.4041 3.22937 13.3831 3.19376 13.3628 3.16099C13.3217 3.09475 13.2698 3.01689 13.201 2.95598C13.123 2.88685 13.025 2.84075 12.9054 2.83774C12.7981 2.83504 12.6938 2.86779 12.5967 2.91046C12.4974 2.95411 12.4265 2.98366 12.3711 3.00671L12.3711 3.00671L12.3394 3.01996C12.283 3.04355 12.2317 3.06535 12.1832 3.09394C12.1314 3.12446 12.0902 3.15814 12.0456 3.19697C12.0268 3.21328 12.0054 3.23233 11.9815 3.25367L11.9683 3.26536C11.9385 3.29193 11.9032 3.32322 11.86 3.36091C11.7836 3.42758 11.7158 3.51917 11.6988 3.64025C11.6822 3.75794 11.7201 3.85981 11.7621 3.93522C11.8037 4.0099 11.8615 4.08054 11.9191 4.1447C11.9723 4.20392 12.035 4.26814 12.0997 4.33433L12.0997 4.33436L12.1193 4.35444C12.4081 4.6504 12.7984 5.05923 13.0866 5.72093C13.3894 6.41605 13.5685 6.96141 13.6627 7.51602C13.7571 8.07119 13.7685 8.64723 13.7237 9.40661C13.6687 10.3414 13.5202 11.0723 13.2553 11.7572C12.9896 12.4441 12.6025 13.0958 12.0568 13.8698C11.9993 13.9514 11.9465 14.0266 11.8974 14.0966C11.6037 14.5151 11.4438 14.743 11.2006 15.0058C10.9139 15.3156 10.5118 15.673 9.64834 16.4188C9.08056 16.9092 8.39398 17.3635 7.72448 17.8065C7.39268 18.0261 7.06507 18.2428 6.75821 18.4599C6.30637 18.7794 5.89787 19.1017 5.62029 19.4269C5.34567 19.7486 5.15653 20.1244 5.25914 20.5308C5.37321 20.9826 5.81955 21.2354 6.31627 21.3675C6.83073 21.5042 7.49455 21.5398 8.21098 21.4874C9.64363 21.3827 11.3565 20.9207 12.6332 20.1149C14.2686 19.0825 15.6867 17.5628 16.4673 16.3813C16.8592 15.7881 17.2659 14.9977 17.5944 14.2479C17.9212 13.5021 18.1807 12.7733 18.2669 12.3052C18.4936 11.0737 18.6018 9.32052 18.0605 7.99745C17.368 6.30459 16.4006 5.50457 15.0826 4.77854ZM17.8064 12.0366C17.8289 11.902 17.8495 11.7628 17.8678 11.6202L17.8547 11.6521L17.8064 12.0366Z" fill="#368BBC"/>
<path fill-rule="evenodd" clip-rule="evenodd" d="M13.909 3.91914C13.7147 4.45017 13.2373 4.78448 12.7497 4.78448C12.6602 4.78448 12.5711 4.77322 12.4839 4.75154C12.3551 4.59742 12.2298 4.46767 12.1193 4.35444L12.0997 4.33436L12.0996 4.33433L12.0996 4.33429L12.0996 4.33427C12.035 4.26811 11.9723 4.2039 11.9191 4.1447C11.8615 4.08054 11.8037 4.0099 11.7621 3.93522C11.7201 3.85981 11.6822 3.75794 11.6988 3.64025C11.7158 3.51917 11.7836 3.42758 11.86 3.36091C11.9032 3.32322 11.9385 3.29193 11.9683 3.26536L11.9814 3.25367C12.0054 3.23233 12.0268 3.21328 12.0456 3.19697C12.0902 3.15814 12.1314 3.12446 12.1832 3.09394C12.2317 3.06535 12.283 3.04355 12.3394 3.01996L12.3711 3.00671L12.3711 3.00671C12.4265 2.98366 12.4974 2.95411 12.5967 2.91046C12.6938 2.86779 12.7981 2.83504 12.9054 2.83774C13.025 2.84075 13.123 2.88685 13.201 2.95598C13.2698 3.01689 13.3217 3.09475 13.3628 3.16099C13.3831 3.19376 13.4041 3.22937 13.425 3.26474L13.4291 3.27176C13.4518 3.31028 13.4753 3.35003 13.5014 3.39221C13.5897 3.53537 13.7117 3.71488 13.909 3.91914Z" fill="#412513"/>
</svg>
