<svg width="24" height="24" viewBox="0 0 24 24" fill="none" xmlns="http://www.w3.org/2000/svg">
<path d="M10.1557 15.1389C10.1557 15.747 10.0692 16.0824 10.3138 16.4696C10.5584 16.8568 10.8827 16.6788 11.3214 16.2468C11.7017 15.8724 12.0564 15.4361 12.2251 15.1389C12.5156 14.6274 12.887 13.577 12.9681 12.6278C13.0492 11.6786 12.9768 10.8129 12.7399 10.0024C12.5491 9.34977 12.3537 8.9968 12.0825 8.67767C11.6642 8.18541 11.4123 8.47114 11.1474 8.47114C10.9328 8.47114 10.7762 8.40977 10.5437 8.63221C10.2393 8.92335 10.1757 9.1297 10.0562 9.4299C9.85497 9.93534 9.81048 10.2894 9.76106 10.8335C9.71163 11.3777 9.7568 12.1282 9.85497 12.9029C9.96303 13.7558 10.1557 14.2406 10.1557 15.1389Z" stroke="#FFBB40" stroke-width="4"/>
<path d="M8.73619 17.298C8.73619 18.3619 8.50406 18.9488 9.16016 19.6262C9.81627 20.3036 10.6861 19.9923 11.8629 19.2364C12.8827 18.5813 13.8342 17.818 14.2868 17.298C15.0659 16.403 16.062 14.5652 16.2796 12.9045C16.4973 11.2437 16.303 9.72898 15.6675 8.3109C15.1558 7.16902 14.6316 6.55144 13.9042 5.99306C12.7822 5.13179 12.1067 5.63171 11.3962 5.63172C10.8204 5.63172 10.4005 5.52434 9.77677 5.91353C8.96031 6.42293 8.78985 6.78397 8.46926 7.30921C7.92947 8.19355 7.81014 8.81301 7.67758 9.76505C7.54501 10.7171 7.66617 12.0303 7.92947 13.3858C8.21931 14.878 8.73619 15.7262 8.73619 17.298Z" stroke="#FFBB40" stroke-width="3"/>
<path d="M10.6677 2.07129C10.4072 1.97958 10.1217 2.11639 10.03 2.37686C9.93832 2.63733 10.0751 2.92282 10.3356 3.01453L10.6677 2.07129ZM11.334 3.23859L11.7686 2.9915L11.334 3.23859ZM10.3356 3.01453C10.4967 3.07126 10.5949 3.1275 10.6685 3.18903C10.7421 3.25057 10.8149 3.33718 10.8993 3.48567L11.7686 2.9915C11.6437 2.77171 11.5001 2.58083 11.3098 2.42176C11.1195 2.2627 10.9062 2.15524 10.6677 2.07129L10.3356 3.01453ZM10.8993 3.48567C10.9438 3.56407 10.9608 3.62978 10.9737 3.73206C10.9847 3.82007 10.9983 4.03481 11.0431 4.23726L12.0194 4.02092C11.9872 3.87561 11.9901 3.79993 11.9658 3.60704C11.9433 3.42843 11.9001 3.22277 11.7686 2.9915L10.8993 3.48567Z" fill="#412513"/>
<path d="M7.52749 18.1241C7.52749 19.4296 7.20885 20.1497 8.10949 20.9808C9.01013 21.812 10.2042 21.43 11.8196 20.5025C13.2195 19.6988 14.5256 18.7621 15.147 18.1241C16.2165 17.0259 17.5838 14.771 17.8825 12.7332C18.1813 10.6955 17.9146 8.83687 17.0423 7.09687C16.3399 5.69577 15.6203 4.938 14.6217 4.25287C13.0815 3.19608 12.1542 3.80948 11.1789 3.80949C10.3885 3.8095 9.81219 3.67774 8.95592 4.15527C7.83515 4.78032 7.60115 5.22332 7.16106 5.86778C6.42008 6.95289 6.25629 7.71296 6.07431 8.88113C5.89233 10.0493 6.05865 11.6606 6.42008 13.3238C6.81796 15.1548 7.52749 16.1956 7.52749 18.1241Z" stroke="#FFBB40"/>
</svg>
