<svg width="24" height="24" viewBox="0 0 24 24" fill="none" xmlns="http://www.w3.org/2000/svg">
<path fill-rule="evenodd" clip-rule="evenodd" d="M12 20C15.5899 20 18.5 17.0899 18.5 13.5C18.5 9.91015 15.5899 7 12 7C8.41015 7 5.5 9.91015 5.5 13.5C5.5 17.0899 8.41015 20 12 20ZM12 22C16.6944 22 20.5 18.1944 20.5 13.5C20.5 8.80558 16.6944 5 12 5C7.30558 5 3.5 8.80558 3.5 13.5C3.5 18.1944 7.30558 22 12 22Z" fill="black"/>
<path d="M9.50143 3L14.5175 3" stroke="black" stroke-width="2" stroke-linecap="round"/>
<path d="M12 3V5.7785" stroke="black" stroke-width="2" stroke-linecap="round"/>
<path d="M18.1471 4.80005L20.3954 6.80475" stroke="black" stroke-width="2" stroke-linecap="round"/>
<path d="M19 6.07758L17.5328 7.71838" stroke="black" stroke-width="2" stroke-linecap="round"/>
<path d="M12 14L14.8261 15.6475" stroke="black" stroke-width="2" stroke-linecap="round"/>
<path d="M12 14V10" stroke="black" stroke-width="2" stroke-linecap="round"/>
</svg>
