<svg width="24" height="24" viewBox="0 0 24 24" fill="none" xmlns="http://www.w3.org/2000/svg">
<path fill-rule="evenodd" clip-rule="evenodd" d="M16.5355 16.5355C16.145 16.9261 15.5118 16.9261 15.1213 16.5355L7.70711 9.12135C7.31658 8.73083 7.31658 8.09767 7.70711 7.70714C8.09763 7.31662 8.73079 7.31661 9.12132 7.70714L16.5355 15.1213C16.9261 15.5118 16.9261 16.145 16.5355 16.5355Z" fill="black"/>
<path fill-rule="evenodd" clip-rule="evenodd" d="M7.70711 16.5355C8.09763 16.9261 8.7308 16.9261 9.12132 16.5355L16.5355 9.12135C16.9261 8.73083 16.9261 8.09767 16.5355 7.70714C16.145 7.31662 15.5119 7.31661 15.1213 7.70714L7.70711 15.1213C7.31659 15.5118 7.31659 16.145 7.70711 16.5355Z" fill="black"/>
</svg>
